<?xml version="1.0" encoding="UTF-8" standalone="no"?><svg xmlns="http://www.w3.org/2000/svg" xmlns:xlink="http://www.w3.org/1999/xlink" contentScriptType="application/ecmascript" contentStyleType="text/css" height="620px" preserveAspectRatio="none" style="width:912px;height:620px;" version="1.1" viewBox="0 0 912 620" width="912px" zoomAndPan="magnify"><defs><filter height="300%" id="f1vrudz8q69v9j" width="300%" x="-1" y="-1"><feGaussianBlur result="blurOut" stdDeviation="2.0"/><feColorMatrix in="blurOut" result="blurOut2" type="matrix" values="0 0 0 0 0 0 0 0 0 0 0 0 0 0 0 0 0 0 .4 0"/><feOffset dx="4.0" dy="4.0" in="blurOut2" result="blurOut3"/><feBlend in="SourceGraphic" in2="blurOut3" mode="normal"/></filter></defs><g><ellipse cx="637.375" cy="20" fill="#000000" filter="url(#f1vrudz8q69v9j)" rx="10" ry="10" style="stroke:none;stroke-width:1.0;"/><rect fill="#FEFECE" filter="url(#f1vrudz8q69v9j)" height="33.9688" rx="12.5" ry="12.5" style="stroke:#A80036;stroke-width:1.5;" width="190" x="542.375" y="50"/><text fill="#000000" font-family="sans-serif" font-size="12" lengthAdjust="spacing" textLength="170" x="552.375" y="71.1387">User adds products to cart</text><rect fill="#FEFECE" filter="url(#f1vrudz8q69v9j)" height="33.9688" rx="12.5" ry="12.5" style="stroke:#A80036;stroke-width:1.5;" width="216" x="529.375" y="103.9688"/><text fill="#000000" font-family="sans-serif" font-size="12" lengthAdjust="spacing" textLength="196" x="539.375" y="125.1074">User chooses payment method</text><rect fill="#FEFECE" filter="url(#f1vrudz8q69v9j)" height="33.9688" rx="12.5" ry="12.5" style="stroke:#A80036;stroke-width:1.5;" width="165" x="554.875" y="157.9375"/><text fill="#000000" font-family="sans-serif" font-size="12" lengthAdjust="spacing" textLength="145" x="564.875" y="179.0762">User submits the order</text><rect fill="#FEFECE" filter="url(#f1vrudz8q69v9j)" height="33.9688" rx="12.5" ry="12.5" style="stroke:#A80036;stroke-width:1.5;" width="257" x="508.875" y="211.9063"/><text fill="#000000" font-family="sans-serif" font-size="12" lengthAdjust="spacing" textLength="237" x="518.875" y="233.0449">System checks availability of products</text><polygon fill="#FEFECE" filter="url(#f1vrudz8q69v9j)" points="582.375,265.875,692.375,265.875,704.375,277.875,692.375,289.875,582.375,289.875,570.375,277.875,582.375,265.875" style="stroke:#A80036;stroke-width:1.5;"/><text fill="#000000" font-family="sans-serif" font-size="11" lengthAdjust="spacing" textLength="110" x="582.375" y="281.6831">Products available?</text><text fill="#000000" font-family="sans-serif" font-size="11" lengthAdjust="spacing" textLength="20" x="550.375" y="275.2808">yes</text><text fill="#000000" font-family="sans-serif" font-size="11" lengthAdjust="spacing" textLength="14" x="704.375" y="275.2808">no</text><rect fill="#FEFECE" filter="url(#f1vrudz8q69v9j)" height="33.9688" rx="12.5" ry="12.5" style="stroke:#A80036;stroke-width:1.5;" width="192" x="355.25" y="299.875"/><text fill="#000000" font-family="sans-serif" font-size="12" lengthAdjust="spacing" textLength="172" x="365.25" y="321.0137">System processes payment</text><polygon fill="#FEFECE" filter="url(#f1vrudz8q69v9j)" points="392.25,367.8125,510.25,367.8125,522.25,379.8125,510.25,391.8125,392.25,391.8125,380.25,379.8125,392.25,367.8125" style="stroke:#A80036;stroke-width:1.5;"/><text fill="#000000" font-family="sans-serif" font-size="11" lengthAdjust="spacing" textLength="118" x="392.25" y="383.6206">Payment authorized?</text><text fill="#000000" font-family="sans-serif" font-size="11" lengthAdjust="spacing" textLength="20" x="360.25" y="377.2183">yes</text><text fill="#000000" font-family="sans-serif" font-size="11" lengthAdjust="spacing" textLength="14" x="522.25" y="377.2183">no</text><rect fill="#000000" filter="url(#f1vrudz8q69v9j)" height="6" rx="2.5" ry="2.5" style="stroke:#000000;stroke-width:1.0;" width="534" x="11" y="401.8125"/><rect fill="#FEFECE" filter="url(#f1vrudz8q69v9j)" height="47.9375" rx="12.5" ry="12.5" style="stroke:#A80036;stroke-width:1.5;" width="135" x="23" y="427.8125"/><text fill="#000000" font-family="sans-serif" font-size="12" lengthAdjust="spacing" textLength="115" x="33" y="448.9512">System decreases</text><text fill="#000000" font-family="sans-serif" font-size="12" lengthAdjust="spacing" textLength="110" x="33" y="462.9199">product inventory</text><rect fill="#FEFECE" filter="url(#f1vrudz8q69v9j)" height="47.9375" rx="12.5" ry="12.5" style="stroke:#A80036;stroke-width:1.5;" width="173" x="168" y="427.8125"/><text fill="#000000" font-family="sans-serif" font-size="12" lengthAdjust="spacing" textLength="139" x="178" y="448.9512">System sends user an</text><text fill="#000000" font-family="sans-serif" font-size="12" lengthAdjust="spacing" textLength="153" x="178" y="462.9199">order confirmation email</text><rect fill="#FEFECE" filter="url(#f1vrudz8q69v9j)" height="33.9688" rx="12.5" ry="12.5" style="stroke:#A80036;stroke-width:1.5;" width="180" x="351" y="434.7969"/><text fill="#000000" font-family="sans-serif" font-size="12" lengthAdjust="spacing" textLength="160" x="361" y="455.9355">System triggers shipment</text><rect fill="#000000" filter="url(#f1vrudz8q69v9j)" height="6" rx="2.5" ry="2.5" style="stroke:#000000;stroke-width:1.0;" width="534" x="11" y="495.75"/><rect fill="#FFC0CB" filter="url(#f1vrudz8q69v9j)" height="47.9375" rx="12.5" ry="12.5" style="stroke:#A80036;stroke-width:1.5;" width="157" x="565" y="401.8125"/><text fill="#000000" font-family="sans-serif" font-size="12" lengthAdjust="spacing" textLength="131" x="575" y="422.9512">:System informs user</text><text fill="#000000" font-family="sans-serif" font-size="12" lengthAdjust="spacing" textLength="137" x="575" y="436.9199">about payment denial</text><polygon fill="#FEFECE" filter="url(#f1vrudz8q69v9j)" points="451.25,507.75,463.25,519.75,451.25,531.75,439.25,519.75,451.25,507.75" style="stroke:#A80036;stroke-width:1.5;"/><rect fill="#FFC0CB" filter="url(#f1vrudz8q69v9j)" height="47.9375" rx="12.5" ry="12.5" style="stroke:#A80036;stroke-width:1.5;" width="143" x="752" y="299.875"/><text fill="#000000" font-family="sans-serif" font-size="12" lengthAdjust="spacing" textLength="123" x="762" y="321.0137">:System sends user</text><text fill="#000000" font-family="sans-serif" font-size="12" lengthAdjust="spacing" textLength="121" x="762" y="334.9824">an apologizer email</text><polygon fill="#FEFECE" filter="url(#f1vrudz8q69v9j)" points="637.375,537.75,649.375,549.75,637.375,561.75,625.375,549.75,637.375,537.75" style="stroke:#A80036;stroke-width:1.5;"/><ellipse cx="637.375" cy="592.75" fill="#FFFFFF" filter="url(#f1vrudz8q69v9j)" rx="11" ry="11" style="stroke:#000000;stroke-width:1.0;"/><ellipse cx="637.375" cy="592.75" fill="#000000" rx="6" ry="6" style="stroke:#7F7F7F;stroke-width:1.0;"/><line style="stroke:#A80036;stroke-width:1.5;" x1="637.375" x2="637.375" y1="30" y2="50"/><polygon fill="#A80036" points="633.375,40,637.375,50,641.375,40,637.375,44" style="stroke:#A80036;stroke-width:1.0;"/><line style="stroke:#A80036;stroke-width:1.5;" x1="637.375" x2="637.375" y1="83.9688" y2="103.9688"/><polygon fill="#A80036" points="633.375,93.9688,637.375,103.9688,641.375,93.9688,637.375,97.9688" style="stroke:#A80036;stroke-width:1.0;"/><line style="stroke:#A80036;stroke-width:1.5;" x1="637.375" x2="637.375" y1="137.9375" y2="157.9375"/><polygon fill="#A80036" points="633.375,147.9375,637.375,157.9375,641.375,147.9375,637.375,151.9375" style="stroke:#A80036;stroke-width:1.0;"/><line style="stroke:#A80036;stroke-width:1.5;" x1="637.375" x2="637.375" y1="191.9063" y2="211.9063"/><polygon fill="#A80036" points="633.375,201.9063,637.375,211.9063,641.375,201.9063,637.375,205.9063" style="stroke:#A80036;stroke-width:1.0;"/><line style="stroke:#A80036;stroke-width:1.5;" x1="90.5" x2="90.5" y1="407.8125" y2="427.8125"/><polygon fill="#A80036" points="86.5,417.8125,90.5,427.8125,94.5,417.8125,90.5,421.8125" style="stroke:#A80036;stroke-width:1.0;"/><line style="stroke:#A80036;stroke-width:1.5;" x1="254.5" x2="254.5" y1="407.8125" y2="427.8125"/><polygon fill="#A80036" points="250.5,417.8125,254.5,427.8125,258.5,417.8125,254.5,421.8125" style="stroke:#A80036;stroke-width:1.0;"/><line style="stroke:#A80036;stroke-width:1.5;" x1="441" x2="441" y1="407.8125" y2="434.7969"/><polygon fill="#A80036" points="437,424.7969,441,434.7969,445,424.7969,441,428.7969" style="stroke:#A80036;stroke-width:1.0;"/><line style="stroke:#A80036;stroke-width:1.5;" x1="90.5" x2="90.5" y1="475.75" y2="495.75"/><polygon fill="#A80036" points="86.5,485.75,90.5,495.75,94.5,485.75,90.5,489.75" style="stroke:#A80036;stroke-width:1.0;"/><line style="stroke:#A80036;stroke-width:1.5;" x1="254.5" x2="254.5" y1="475.75" y2="495.75"/><polygon fill="#A80036" points="250.5,485.75,254.5,495.75,258.5,485.75,254.5,489.75" style="stroke:#A80036;stroke-width:1.0;"/><line style="stroke:#A80036;stroke-width:1.5;" x1="441" x2="441" y1="468.7656" y2="495.75"/><polygon fill="#A80036" points="437,485.75,441,495.75,445,485.75,441,489.75" style="stroke:#A80036;stroke-width:1.0;"/><line style="stroke:#A80036;stroke-width:1.5;" x1="380.25" x2="277" y1="379.8125" y2="379.8125"/><line style="stroke:#A80036;stroke-width:1.5;" x1="277" x2="277" y1="379.8125" y2="401.8125"/><polygon fill="#A80036" points="273,391.8125,277,401.8125,281,391.8125,277,395.8125" style="stroke:#A80036;stroke-width:1.0;"/><line style="stroke:#A80036;stroke-width:1.5;" x1="522.25" x2="643.5" y1="379.8125" y2="379.8125"/><line style="stroke:#A80036;stroke-width:1.5;" x1="643.5" x2="643.5" y1="379.8125" y2="401.8125"/><polygon fill="#A80036" points="639.5,391.8125,643.5,401.8125,647.5,391.8125,643.5,395.8125" style="stroke:#A80036;stroke-width:1.0;"/><line style="stroke:#A80036;stroke-width:1.5;" x1="277" x2="277" y1="501.75" y2="519.75"/><line style="stroke:#A80036;stroke-width:1.5;" x1="277" x2="439.25" y1="519.75" y2="519.75"/><polygon fill="#A80036" points="429.25,515.75,439.25,519.75,429.25,523.75,433.25,519.75" style="stroke:#A80036;stroke-width:1.0;"/><line style="stroke:#A80036;stroke-width:1.5;" x1="643.5" x2="643.5" y1="449.75" y2="519.75"/><line style="stroke:#A80036;stroke-width:1.5;" x1="643.5" x2="463.25" y1="519.75" y2="519.75"/><polygon fill="#A80036" points="473.25,515.75,463.25,519.75,473.25,523.75,469.25,519.75" style="stroke:#A80036;stroke-width:1.0;"/><line style="stroke:#A80036;stroke-width:1.5;" x1="451.25" x2="451.25" y1="333.8438" y2="367.8125"/><polygon fill="#A80036" points="447.25,357.8125,451.25,367.8125,455.25,357.8125,451.25,361.8125" style="stroke:#A80036;stroke-width:1.0;"/><line style="stroke:#A80036;stroke-width:1.5;" x1="570.375" x2="451.25" y1="277.875" y2="277.875"/><line style="stroke:#A80036;stroke-width:1.5;" x1="451.25" x2="451.25" y1="277.875" y2="299.875"/><polygon fill="#A80036" points="447.25,289.875,451.25,299.875,455.25,289.875,451.25,293.875" style="stroke:#A80036;stroke-width:1.0;"/><line style="stroke:#A80036;stroke-width:1.5;" x1="704.375" x2="823.5" y1="277.875" y2="277.875"/><line style="stroke:#A80036;stroke-width:1.5;" x1="823.5" x2="823.5" y1="277.875" y2="299.875"/><polygon fill="#A80036" points="819.5,289.875,823.5,299.875,827.5,289.875,823.5,293.875" style="stroke:#A80036;stroke-width:1.0;"/><line style="stroke:#A80036;stroke-width:1.5;" x1="451.25" x2="451.25" y1="531.75" y2="549.75"/><line style="stroke:#A80036;stroke-width:1.5;" x1="451.25" x2="625.375" y1="549.75" y2="549.75"/><polygon fill="#A80036" points="615.375,545.75,625.375,549.75,615.375,553.75,619.375,549.75" style="stroke:#A80036;stroke-width:1.0;"/><line style="stroke:#A80036;stroke-width:1.5;" x1="823.5" x2="823.5" y1="347.8125" y2="549.75"/><line style="stroke:#A80036;stroke-width:1.5;" x1="823.5" x2="649.375" y1="549.75" y2="549.75"/><polygon fill="#A80036" points="659.375,545.75,649.375,549.75,659.375,553.75,655.375,549.75" style="stroke:#A80036;stroke-width:1.0;"/><line style="stroke:#A80036;stroke-width:1.5;" x1="637.375" x2="637.375" y1="245.875" y2="265.875"/><polygon fill="#A80036" points="633.375,255.875,637.375,265.875,641.375,255.875,637.375,259.875" style="stroke:#A80036;stroke-width:1.0;"/><line style="stroke:#A80036;stroke-width:1.5;" x1="637.375" x2="637.375" y1="561.75" y2="581.75"/><polygon fill="#A80036" points="633.375,571.75,637.375,581.75,641.375,571.75,637.375,575.75" style="stroke:#A80036;stroke-width:1.0;"/><!--MD5=[1a341b82e4bf5a82d08af6bba783b937]
@startuml

start
:User adds products to cart;
:User chooses payment method;
:User submits the order;
:System checks availability of products;
if (Products available?) then (yes)
    :System processes payment;
    if (Payment authorized?) then (yes)
        fork
            :System decreases
            product inventory;
        fork again
            :System sends user an
            order confirmation email;
        fork again
            :System triggers shipment;
        end fork
    else (no)
        #pink::System informs user
        about payment denial;
    endif
else (no)
    #pink::System sends user
    an apologizer email;
endif

stop

@enduml

PlantUML version 1.2021.01(Tue Feb 02 04:55:08 BRT 2021)
(GPL source distribution)
Java Runtime: OpenJDK Runtime Environment
JVM: Eclipse OpenJ9 VM
Default Encoding: UTF-8
Language: pt
Country: BR
--></g></svg>