<?xml version="1.0" encoding="UTF-8" standalone="no"?><svg xmlns="http://www.w3.org/2000/svg" xmlns:xlink="http://www.w3.org/1999/xlink" contentScriptType="application/ecmascript" contentStyleType="text/css" height="520px" preserveAspectRatio="none" style="width:344px;height:520px;" version="1.1" viewBox="0 0 344 520" width="344px" zoomAndPan="magnify"><defs><filter height="300%" id="fckcuug77wney" width="300%" x="-1" y="-1"><feGaussianBlur result="blurOut" stdDeviation="2.0"/><feColorMatrix in="blurOut" result="blurOut2" type="matrix" values="0 0 0 0 0 0 0 0 0 0 0 0 0 0 0 0 0 0 .4 0"/><feOffset dx="4.0" dy="4.0" in="blurOut2" result="blurOut3"/><feBlend in="SourceGraphic" in2="blurOut3" mode="normal"/></filter></defs><g><ellipse cx="169" cy="20" fill="#000000" filter="url(#fckcuug77wney)" rx="10" ry="10" style="stroke:none;stroke-width:1.0;"/><rect fill="#FEFECE" filter="url(#fckcuug77wney)" height="33.9688" rx="12.5" ry="12.5" style="stroke:#A80036;stroke-width:1.5;" width="190" x="74" y="50"/><text fill="#000000" font-family="sans-serif" font-size="12" lengthAdjust="spacing" textLength="170" x="84" y="71.1387">User adds products to cart</text><rect fill="#FEFECE" filter="url(#fckcuug77wney)" height="33.9688" rx="12.5" ry="12.5" style="stroke:#A80036;stroke-width:1.5;" width="216" x="61" y="103.9688"/><text fill="#000000" font-family="sans-serif" font-size="12" lengthAdjust="spacing" textLength="196" x="71" y="125.1074">User chooses payment method</text><rect fill="#FEFECE" filter="url(#fckcuug77wney)" height="33.9688" rx="12.5" ry="12.5" style="stroke:#A80036;stroke-width:1.5;" width="165" x="86.5" y="157.9375"/><text fill="#000000" font-family="sans-serif" font-size="12" lengthAdjust="spacing" textLength="145" x="96.5" y="179.0762">User submits the order</text><rect fill="#FEFECE" filter="url(#fckcuug77wney)" height="33.9688" rx="12.5" ry="12.5" style="stroke:#A80036;stroke-width:1.5;" width="241" x="48.5" y="211.9063"/><text fill="#000000" font-family="sans-serif" font-size="12" lengthAdjust="spacing" textLength="221" x="58.5" y="233.0449">System checks products availability</text><rect fill="#FEFECE" filter="url(#fckcuug77wney)" height="33.9688" rx="12.5" ry="12.5" style="stroke:#A80036;stroke-width:1.5;" width="192" x="73" y="265.875"/><text fill="#000000" font-family="sans-serif" font-size="12" lengthAdjust="spacing" textLength="172" x="83" y="287.0137">System processes payment</text><rect fill="#FEFECE" filter="url(#fckcuug77wney)" height="33.9688" rx="12.5" ry="12.5" style="stroke:#A80036;stroke-width:1.5;" width="249" x="44.5" y="319.8438"/><text fill="#000000" font-family="sans-serif" font-size="12" lengthAdjust="spacing" textLength="229" x="54.5" y="340.9824">System decreases product inventory</text><rect fill="#FEFECE" filter="url(#fckcuug77wney)" height="33.9688" rx="12.5" ry="12.5" style="stroke:#A80036;stroke-width:1.5;" width="316" x="11" y="373.8125"/><text fill="#000000" font-family="sans-serif" font-size="12" lengthAdjust="spacing" textLength="296" x="21" y="394.9512">System sends user an order confirmation email</text><rect fill="#FEFECE" filter="url(#fckcuug77wney)" height="33.9688" rx="12.5" ry="12.5" style="stroke:#A80036;stroke-width:1.5;" width="180" x="79" y="427.7813"/><text fill="#000000" font-family="sans-serif" font-size="12" lengthAdjust="spacing" textLength="160" x="89" y="448.9199">System triggers shipment</text><ellipse cx="169" cy="492.75" fill="#FFFFFF" filter="url(#fckcuug77wney)" rx="11" ry="11" style="stroke:#000000;stroke-width:1.0;"/><ellipse cx="169" cy="492.75" fill="#000000" rx="6" ry="6" style="stroke:#7F7F7F;stroke-width:1.0;"/><line style="stroke:#A80036;stroke-width:1.5;" x1="169" x2="169" y1="30" y2="50"/><polygon fill="#A80036" points="165,40,169,50,173,40,169,44" style="stroke:#A80036;stroke-width:1.0;"/><line style="stroke:#A80036;stroke-width:1.5;" x1="169" x2="169" y1="83.9688" y2="103.9688"/><polygon fill="#A80036" points="165,93.9688,169,103.9688,173,93.9688,169,97.9688" style="stroke:#A80036;stroke-width:1.0;"/><line style="stroke:#A80036;stroke-width:1.5;" x1="169" x2="169" y1="137.9375" y2="157.9375"/><polygon fill="#A80036" points="165,147.9375,169,157.9375,173,147.9375,169,151.9375" style="stroke:#A80036;stroke-width:1.0;"/><line style="stroke:#A80036;stroke-width:1.5;" x1="169" x2="169" y1="191.9063" y2="211.9063"/><polygon fill="#A80036" points="165,201.9063,169,211.9063,173,201.9063,169,205.9063" style="stroke:#A80036;stroke-width:1.0;"/><line style="stroke:#A80036;stroke-width:1.5;" x1="169" x2="169" y1="245.875" y2="265.875"/><polygon fill="#A80036" points="165,255.875,169,265.875,173,255.875,169,259.875" style="stroke:#A80036;stroke-width:1.0;"/><line style="stroke:#A80036;stroke-width:1.5;" x1="169" x2="169" y1="299.8438" y2="319.8438"/><polygon fill="#A80036" points="165,309.8438,169,319.8438,173,309.8438,169,313.8438" style="stroke:#A80036;stroke-width:1.0;"/><line style="stroke:#A80036;stroke-width:1.5;" x1="169" x2="169" y1="353.8125" y2="373.8125"/><polygon fill="#A80036" points="165,363.8125,169,373.8125,173,363.8125,169,367.8125" style="stroke:#A80036;stroke-width:1.0;"/><line style="stroke:#A80036;stroke-width:1.5;" x1="169" x2="169" y1="407.7813" y2="427.7813"/><polygon fill="#A80036" points="165,417.7813,169,427.7813,173,417.7813,169,421.7813" style="stroke:#A80036;stroke-width:1.0;"/><line style="stroke:#A80036;stroke-width:1.5;" x1="169" x2="169" y1="461.75" y2="481.75"/><polygon fill="#A80036" points="165,471.75,169,481.75,173,471.75,169,475.75" style="stroke:#A80036;stroke-width:1.0;"/><!--MD5=[0097a369543d7e40369fb8f82954bdc8]
@startuml

start
:User adds products to cart;
:User chooses payment method;
:User submits the order;
:System checks products availability;
:System processes payment;
:System decreases product inventory;
:System sends user an order confirmation email;
:System triggers shipment;
stop

@enduml

PlantUML version 1.2021.01(Tue Feb 02 04:55:08 BRT 2021)
(GPL source distribution)
Java Runtime: OpenJDK Runtime Environment
JVM: Eclipse OpenJ9 VM
Default Encoding: UTF-8
Language: pt
Country: BR
--></g></svg>